<svg width="157" height="56" viewBox="0 0 157 56" fill="none" xmlns="http://www.w3.org/2000/svg">
<path d="M0.599976 42.3263C0.599976 28.1717 0.599976 14.1546 0.599976 0C14.6858 0 28.4969 0 42.5827 0C42.5827 14.1546 42.5827 28.1717 42.5827 42.3263C28.5656 42.3263 14.6858 42.3263 0.599976 42.3263ZM9.94475 14.3607C9.94475 19.1018 9.94475 23.5681 9.94475 28.1717C14.9607 28.1717 19.7705 28.1717 24.5803 28.1717C24.5803 23.4306 24.5803 18.8957 24.5803 14.3607C19.7018 14.3607 15.0294 14.3607 9.94475 14.3607Z" fill="#7E7E7E"/>
<path d="M96.7275 41.1581C96.7275 31.8133 96.7275 22.5373 96.7275 10.3753C93.2919 22.4686 90.6122 31.7446 87.8637 41.1581C84.703 41.1581 81.6797 41.1581 78.3815 41.1581C75.8392 31.8133 73.2969 22.5373 69.9987 10.3753C69.9987 22.606 69.9987 31.8133 69.9987 41.1581C66.7006 41.1581 63.8147 41.1581 60.7227 41.1581C60.7227 27.6219 60.7227 14.2919 60.7227 0.755723C65.876 0.755723 70.8233 0.755723 76.114 0.755723C78.3815 9.34467 80.649 17.9336 83.3288 27.9655C86.1459 18.0023 88.5508 9.41338 90.9557 0.687012C95.9717 0.687012 100.85 0.687012 105.935 0.687012C105.935 14.1545 105.935 27.4845 105.935 41.0894C102.98 41.1581 99.957 41.1581 96.7275 41.1581Z" fill="white"/>
<path d="M116.585 0.755859C120.57 0.755859 123.869 0.755859 127.579 0.755859C130.534 10.1693 133.488 19.7202 136.718 30.0957C139.535 19.8577 142.214 10.3755 144.826 0.824571C148.605 0.824571 152.246 0.824571 156.438 0.824571C152.109 14.3607 147.849 27.7595 143.589 41.2957C139.191 41.2957 135 41.2957 130.396 41.2957C125.861 27.9656 121.326 14.6356 116.585 0.755859Z" fill="white"/>
<path d="M9.9447 14.3606C14.9606 14.3606 19.633 14.3606 24.5803 14.3606C24.5803 18.8956 24.5803 23.4305 24.5803 28.1716C19.7705 28.1716 14.9606 28.1716 9.9447 28.1716C9.9447 23.5679 9.9447 19.1704 9.9447 14.3606Z" fill="white"/>
<path d="M8.43309 55.8625H7.19629V53.0453C7.19629 51.9459 7.265 50.5717 7.33371 49.4723C7.19629 50.0907 7.12757 50.2281 6.57788 51.7398L5.06623 55.8625H4.03555L2.45519 51.8085C2.04292 50.5717 1.9055 50.1594 1.76807 49.541C1.83678 51.3275 1.83678 51.8772 1.83678 52.9766V55.9312H0.599976V48.3729H2.45519L3.89813 52.2208C4.37911 53.6637 4.37911 53.8011 4.51653 54.3508C4.58525 54.1447 4.65396 54.0073 4.65396 53.8011L4.86009 53.0453C4.9288 52.7704 4.99752 52.4956 5.13494 52.2208L6.50917 48.3042H8.36438V55.8625H8.43309Z" fill="white"/>
<path d="M11.1815 49.4723H9.9447V48.3042H11.1815V49.4723ZM11.1815 55.8625H9.9447V50.4343H11.1815V55.8625Z" fill="white"/>
<path d="M17.4343 54.1446C17.1594 55.3127 16.2662 55.9998 14.9606 55.9998C13.3116 55.9998 12.2809 54.9004 12.2809 53.1826C12.2809 51.4648 13.3803 50.228 14.8919 50.228C15.9913 50.228 16.8158 50.7777 17.2281 51.8084C17.4343 52.2207 17.503 52.7704 17.503 53.4575H13.449C13.5177 54.5569 13.9987 55.1753 14.9606 55.1753C15.6477 55.1753 15.9913 54.9004 16.2662 54.2133H17.4343V54.1446ZM16.2662 52.6329C16.1974 51.7397 15.6477 51.19 14.8919 51.19C14.1361 51.19 13.5864 51.671 13.449 52.6329H16.2662Z" fill="white"/>
<path d="M20.9387 51.2585H19.8393V54.1444C19.8393 54.9002 19.908 54.969 20.5951 54.969C20.6638 54.969 20.8013 54.969 20.9387 54.969V55.9309C20.6638 55.9309 20.4577 55.9996 20.1141 55.9996C19.3583 55.9996 19.0148 55.8622 18.8086 55.4499C18.6712 55.1751 18.6712 54.969 18.6712 53.9383V51.3272H17.778V50.434H18.6712V48.7849H19.908V50.434H21.0074V51.2585H20.9387Z" fill="white"/>
<path d="M26.6416 54.1446C26.3668 55.3127 25.4736 55.9998 24.168 55.9998C22.519 55.9998 21.4883 54.9004 21.4883 53.1826C21.4883 51.4648 22.5877 50.228 24.0993 50.228C25.1987 50.228 26.0232 50.7777 26.4355 51.8084C26.6416 52.2207 26.7104 52.7704 26.7104 53.4575H22.6564C22.7251 54.5569 23.2061 55.1753 24.168 55.1753C24.8551 55.1753 25.1987 54.9004 25.4736 54.2133H26.6416V54.1446ZM25.5423 52.6329C25.4736 51.7397 24.9239 51.19 24.168 51.19C23.4122 51.19 22.8625 51.671 22.7251 52.6329H25.5423Z" fill="white"/>
<path d="M30.9705 51.4651C30.7644 51.4651 30.6957 51.4651 30.4896 51.4651C29.9399 51.4651 29.4589 51.8087 29.184 52.2896C29.0466 52.5645 28.9779 52.9768 28.9779 53.7326V55.9314H27.7411V50.5031H28.8405V51.6025C29.2527 50.778 29.8711 50.3657 30.6957 50.3657C30.6957 50.3657 30.8331 50.3657 30.9018 50.3657V51.4651H30.9705Z" fill="white"/>
<path d="M32.8944 49.4723H31.6576V48.3042H32.8944V49.4723ZM32.8944 55.8625H31.6576V50.4343H32.8944V55.8625Z" fill="white"/>
<path d="M35.4367 51.19C35.9176 50.5029 36.4673 50.228 37.2232 50.228C37.9103 50.228 38.5287 50.5029 38.8035 50.9839C39.0097 51.3274 39.0784 51.671 39.0784 52.3581V55.8624H37.8416V52.7016C37.8416 52.2207 37.8416 52.0145 37.7728 51.8084C37.6354 51.4648 37.2919 51.2587 36.8109 51.2587C36.2612 51.2587 35.8489 51.5335 35.6428 51.9458C35.5054 52.2207 35.5054 52.5642 35.5054 53.1139V55.8624H34.2686V50.4342H35.3679V51.19H35.4367Z" fill="white"/>
<path d="M41.6209 51.19C42.1018 50.5029 42.6515 50.228 43.4074 50.228C44.0945 50.228 44.7129 50.5029 44.9877 50.9839C45.1939 51.3274 45.2626 51.671 45.2626 52.3581V55.8624H44.0258V52.7016C44.0258 52.2207 44.0258 52.0145 43.957 51.8084C43.8196 51.4648 43.4761 51.2587 42.9951 51.2587C42.4454 51.2587 42.0331 51.5335 41.827 51.9458C41.6896 52.2207 41.6896 52.5642 41.6896 53.1139V55.8624H40.4528V50.4342H41.5521V51.19H41.6209Z" fill="white"/>
<path d="M51.5153 54.1446C51.2405 55.3127 50.3472 55.9998 49.0417 55.9998C47.3926 55.9998 46.3619 54.9004 46.3619 53.1826C46.3619 51.4648 47.4613 50.228 48.973 50.228C50.0724 50.228 50.8969 50.7777 51.3092 51.8084C51.5153 52.2207 51.584 52.7704 51.584 53.4575H47.53C47.5987 54.5569 48.0797 55.1753 49.0417 55.1753C49.7288 55.1753 50.0724 54.9004 50.3472 54.2133H51.5153V54.1446ZM50.4159 52.6329C50.3472 51.7397 49.7975 51.19 49.0417 51.19C48.2172 51.19 47.7362 51.671 47.5987 52.6329H50.4159Z" fill="white"/>
<path d="M53.7827 51.19C54.2637 50.5029 54.8134 50.228 55.5692 50.228C56.2563 50.228 56.8748 50.5029 57.1496 50.9839C57.3557 51.3274 57.4244 51.671 57.4244 52.3581V55.8624H56.2563V52.7016C56.2563 52.2207 56.2563 52.0145 56.1876 51.8084C56.0502 51.4648 55.7067 51.2587 55.2257 51.2587C54.676 51.2587 54.2637 51.5335 54.0576 51.9458C53.9202 52.2207 53.9202 52.5642 53.9202 53.1139V55.8624H52.6833V50.4342H53.7827V51.19Z" fill="white"/>
<path d="M60.86 53.5947H58.1803V52.4954H60.86V53.5947Z" fill="white"/>
<path d="M69.1742 55.8626H68.0748V55.0381C67.5938 55.7252 67.0441 56.0001 66.2883 56.0001C65.6012 56.0001 65.1202 55.7939 64.7767 55.313C64.5018 54.9694 64.4331 54.5571 64.4331 53.87V50.3657H65.6699V53.4577C65.6699 54.1449 65.6699 54.351 65.8073 54.5571C65.9448 54.832 66.2883 54.9694 66.7006 54.9694C67.2503 54.9694 67.6625 54.6946 67.8687 54.2136C68.0061 53.9387 68.0061 53.6639 68.0061 53.0455V50.3657H69.2429V55.8626H69.1742Z" fill="white"/>
<path d="M71.7164 51.19C72.1974 50.5029 72.7471 50.228 73.5029 50.228C74.19 50.228 74.8085 50.5029 75.0833 50.9839C75.2894 51.3274 75.3581 51.671 75.3581 52.3581V55.8624H74.1213V52.7016C74.1213 52.2207 74.1213 52.0145 74.0526 51.8084C73.9152 51.4648 73.5716 51.2587 73.0907 51.2587C72.541 51.2587 72.1287 51.5335 71.9226 51.9458C71.7851 52.2207 71.7851 52.5642 71.7851 53.1139V55.8624H70.5483V50.4342H71.6477V51.19H71.7164Z" fill="white"/>
<path d="M81.8857 55.8625H80.7864V55.1066C80.4428 55.725 79.8244 55.9999 79.0686 55.9999C77.4882 55.9999 76.5262 54.9005 76.5262 53.114C76.5262 51.3275 77.4882 50.2281 78.9999 50.2281C79.7557 50.2281 80.3741 50.503 80.7176 51.1214V48.3042H81.9545V55.8625H81.8857ZM77.6943 53.114C77.6943 54.2821 78.244 55.0379 79.206 55.0379C80.168 55.0379 80.7176 54.3508 80.7176 53.114C80.7176 51.9459 80.168 51.1901 79.206 51.1901C78.244 51.1901 77.6943 51.8772 77.6943 53.114Z" fill="white"/>
<path d="M93.9791 55.8624H92.7423V53.0452C92.7423 51.9458 92.811 50.5716 92.8797 49.4722C92.7423 50.0906 92.6736 50.228 92.1239 51.7397L90.6122 55.8624H89.5128L87.9325 51.8084C87.5202 50.5716 87.3828 50.1593 87.2454 49.5409C87.3141 51.3274 87.3141 51.8771 87.3141 52.9765V55.9311H86.0773V48.3728H87.9325L89.3754 52.2894C89.8564 53.7323 89.8564 53.8697 89.9938 54.4194C90.0625 54.2133 90.1313 54.0759 90.1313 53.8697L90.3374 53.1139C90.4061 52.8391 90.4748 52.5642 90.6122 52.2894L91.9865 48.3728H93.8417V55.8624H93.9791Z" fill="white"/>
<path d="M96.7275 49.4723H95.4907V48.3042H96.7275V49.4723ZM96.7275 55.8625H95.4907V50.4343H96.7275V55.8625Z" fill="white"/>
<path d="M102.98 54.1446C102.705 55.3127 101.812 55.9998 100.507 55.9998C98.8575 55.9998 97.8268 54.9004 97.8268 53.1826C97.8268 51.4648 98.9262 50.228 100.438 50.228C101.537 50.228 102.362 50.7777 102.774 51.8084C102.98 52.2207 103.049 52.7704 103.049 53.4575H98.9949C99.0636 54.5569 99.5446 55.1753 100.507 55.1753C101.194 55.1753 101.537 54.9004 101.812 54.2133H102.98V54.1446ZM101.881 52.6329C101.812 51.7397 101.262 51.19 100.507 51.19C99.682 51.19 99.201 51.671 99.0636 52.6329H101.881Z" fill="white"/>
<path d="M106.553 51.2585H105.454V54.1444C105.454 54.9002 105.523 54.969 106.21 54.969C106.278 54.969 106.416 54.969 106.553 54.969V55.9309C106.278 55.9309 106.072 55.9996 105.729 55.9996C104.973 55.9996 104.629 55.8622 104.423 55.4499C104.286 55.1751 104.286 54.969 104.286 53.9383V51.3272H103.392V50.434H104.286V48.7849H105.523V50.434H106.622V51.2585H106.553Z" fill="white"/>
<path d="M112.256 54.1446C111.981 55.3127 111.088 55.9998 109.783 55.9998C108.134 55.9998 107.103 54.9004 107.103 53.1826C107.103 51.4648 108.202 50.228 109.714 50.228C110.813 50.228 111.638 50.7777 112.05 51.8084C112.256 52.2207 112.325 52.7704 112.325 53.4575H108.271C108.34 54.5569 108.821 55.1753 109.783 55.1753C110.47 55.1753 110.813 54.9004 111.088 54.2133H112.256V54.1446ZM111.088 52.6329C111.019 51.7397 110.47 51.19 109.714 51.19C108.958 51.19 108.408 51.671 108.271 52.6329H111.088Z" fill="white"/>
<path d="M116.585 51.4651C116.379 51.4651 116.31 51.4651 116.104 51.4651C115.554 51.4651 115.073 51.8087 114.799 52.2896C114.661 52.5645 114.592 52.9768 114.592 53.7326V55.9314H113.356V50.5031H114.455V51.6025C114.867 50.778 115.486 50.3657 116.31 50.3657C116.31 50.3657 116.448 50.3657 116.516 50.3657V51.4651H116.585Z" fill="white"/>
<path d="M120.227 55.8623H118.853L116.86 50.4341H118.165L118.99 52.9077C119.265 53.7322 119.402 54.2819 119.54 54.7629C119.677 54.1445 119.746 53.8697 120.089 52.9077L120.914 50.4341H122.151L120.227 55.8623Z" fill="white"/>
<path d="M127.579 54.1446C127.304 55.3127 126.411 55.9998 125.105 55.9998C123.456 55.9998 122.426 54.9004 122.426 53.1826C122.426 51.4648 123.525 50.228 125.037 50.228C126.136 50.228 126.96 50.7777 127.373 51.8084C127.579 52.2207 127.648 52.7704 127.648 53.4575H123.594C123.662 54.5569 124.143 55.1753 125.105 55.1753C125.792 55.1753 126.136 54.9004 126.411 54.2133H127.579V54.1446ZM126.48 52.6329C126.411 51.7397 125.861 51.19 125.105 51.19C124.281 51.19 123.8 51.671 123.662 52.6329H126.48Z" fill="white"/>
<path d="M131.908 51.4651C131.702 51.4651 131.633 51.4651 131.427 51.4651C130.877 51.4651 130.396 51.8087 130.121 52.2896C129.984 52.5645 129.915 52.9768 129.915 53.7326V55.9314H128.678V50.5031H129.778V51.6025C130.19 50.778 130.808 50.3657 131.633 50.3657C131.633 50.3657 131.77 50.3657 131.839 50.3657V51.4651H131.908Z" fill="white"/>
<path d="M133.832 51.1212C134.244 50.5715 134.862 50.228 135.618 50.228C137.061 50.228 138.023 51.3274 138.023 53.0452C138.023 54.8317 137.061 55.931 135.549 55.931C134.725 55.931 134.107 55.6562 133.763 55.0378V55.7936H132.664V48.2354H133.9V51.1212H133.832ZM133.832 53.1139C133.832 54.282 134.381 55.0378 135.343 55.0378C136.237 55.0378 136.855 54.282 136.855 53.1139C136.855 51.9458 136.237 51.2587 135.343 51.2587C134.381 51.1899 133.832 51.8771 133.832 53.1139Z" fill="white"/>
<path d="M138.985 52.0832C139.054 50.8464 139.878 50.228 141.39 50.228C142.901 50.228 143.657 50.7777 143.657 51.8084L143.589 54.282C143.589 54.9691 143.589 55.0378 143.932 55.0378C144.001 55.0378 144.07 55.0378 144.207 55.0378V55.8624C143.863 55.9311 143.657 55.9998 143.451 55.9998C142.901 55.9998 142.627 55.7937 142.558 55.3127C142.008 55.7937 141.459 55.9998 140.634 55.9998C139.535 55.9998 138.779 55.3814 138.779 54.3507C138.779 53.8697 138.985 53.4575 139.328 53.1826C139.741 52.9078 139.947 52.8391 141.184 52.6329C142.283 52.4955 142.421 52.4268 142.421 52.0145V51.9458V51.8084C142.421 51.3274 142.008 51.1213 141.321 51.1213C140.497 51.1213 140.222 51.3961 140.084 52.0832H138.985ZM142.489 53.1139C142.214 53.2513 142.077 53.32 141.184 53.3888C140.634 53.4575 140.359 53.5262 140.222 53.7323C140.084 53.8697 140.016 54.0759 140.016 54.282C140.016 54.763 140.428 55.1065 141.046 55.1065C141.596 55.1065 142.214 54.8317 142.421 54.4881C142.489 54.3507 142.558 54.2133 142.558 53.7323V53.1139H142.489Z" fill="white"/>
<path d="M146.268 51.19C146.749 50.5029 147.299 50.228 148.055 50.228C148.742 50.228 149.36 50.5029 149.635 50.9839C149.841 51.3274 149.91 51.671 149.91 52.3581V55.8624H148.673V52.7016C148.673 52.2207 148.673 52.0145 148.605 51.8084C148.467 51.4648 148.124 51.2587 147.643 51.2587C147.093 51.2587 146.681 51.5335 146.475 51.9458C146.337 52.2207 146.337 52.5642 146.337 53.1139V55.8624H145.1V50.4342H146.2V51.19H146.268Z" fill="white"/>
<path d="M156.438 55.8625H155.338V55.1066C154.995 55.725 154.376 55.9999 153.621 55.9999C152.04 55.9999 151.078 54.9005 151.078 53.114C151.078 51.3275 152.04 50.2281 153.552 50.2281C154.308 50.2281 154.926 50.503 155.27 51.1214V48.3042H156.506V55.8625H156.438ZM152.246 53.114C152.246 54.2821 152.796 55.0379 153.758 55.0379C154.72 55.0379 155.27 54.3508 155.27 53.114C155.27 51.9459 154.72 51.1901 153.758 51.1901C152.796 51.1901 152.246 51.8772 152.246 53.114Z" fill="white"/>
</svg>
