<svg width="349" height="46" viewBox="0 0 349 46" fill="none" xmlns="http://www.w3.org/2000/svg">
<g clip-path="url(#clip0_92_163)">
<path d="M72.5 10.6L70 19.2C69.9 19.7 69.4 19.9 69 19.9C68.6 19.9 68.2 19.7 68 19.2L66.2 13.6L64.4 19.2C64.2 19.7 63.8 19.9 63.4 19.9H63.3C62.9 19.9 62.5 19.7 62.3 19.2L59.9 10.6C59.9 10.5 59.9 10.4 59.9 10.3C59.9 9.70005 60.3 9.30005 60.9 9.30005C61.3 9.30005 61.7 9.50005 61.8 10L63.4 15.5L65.1 10C65.2 9.60005 65.4 9.30005 66.1 9.30005H66.2C66.8 9.30005 67 9.60005 67.2 10L68.9 15.5L70.5 10C70.6 9.50005 71.1 9.30005 71.4 9.30005C72 9.30005 72.4 9.80005 72.4 10.3C72.6 10.4 72.6 10.5 72.5 10.6Z" fill="#7E7E7E"/>
<path d="M78.1 19.9H77.9C76 19.9 74.4 18.4 74.4 16.4V12.8C74.4 10.9 76 9.30005 77.9 9.30005H78.1C80 9.30005 81.6 10.8 81.6 12.8V16.4C81.6 18.3 80 19.9 78.1 19.9ZM79.6 12.8C79.6 12 78.9 11.4 78.1 11.4H77.9C77.1 11.4 76.4 12 76.4 12.8V16.4C76.4 17.2 77.1 17.8 77.9 17.8H78.1C78.9 17.8 79.6 17.2 79.6 16.4V12.8Z" fill="#7E7E7E"/>
<path d="M90.5 19.9001C90 19.9001 89.5 19.6001 89.5 18.9001V12.9001C89.5 11.9001 88.8 11.4001 88 11.4001H87.9C86.9 11.4001 86.3 12.1001 86.3 13.0001V18.9001C86.3 19.6001 85.8 19.9001 85.3 19.9001C84.8 19.9001 84.3 19.6001 84.3 18.9001V5.90015C84.3 5.20015 84.8 4.90015 85.3 4.90015C85.8 4.90015 86.3 5.20015 86.3 5.90015V9.90015C86.7 9.50015 87.5 9.30015 87.8 9.30015H88.1C90.1 9.30015 91.5 10.9001 91.5 12.8001V18.8001C91.5 19.5001 91 19.9001 90.5 19.9001Z" fill="#7E7E7E"/>
<path d="M100.1 19.9001C99.6 19.9001 99.1 19.6001 99.1 18.9001V12.9001C99.1 12.1001 98.5 11.4001 97.6 11.4001H97.4C96.6 11.4001 95.9 12.1001 95.9 12.9001V18.9001C95.9 19.6001 95.4 19.9001 94.9 19.9001C94.4 19.9001 93.9 19.6001 93.9 18.9001V10.4001C93.9 9.70015 94.4 9.40015 94.9 9.40015C95.3 9.40015 95.7 9.50015 95.9 10.0001C96.5 9.40015 96.9 9.40015 97.4 9.40015H97.6C99.7 9.40015 101.1 11.0001 101.1 12.9001V18.9001C101.1 19.5001 100.6 19.9001 100.1 19.9001Z" fill="#7E7E7E"/>
<path d="M107.6 19.9001H107.5C107.2 19.9001 106.4 19.8001 106 19.3001C105.9 19.6001 105.6 19.9001 105 19.9001C104.5 19.9001 104 19.5001 104 18.9001V5.90015C104 5.20015 104.5 4.90015 105 4.90015C105.5 4.90015 106 5.20015 106 5.90015V9.90015C106.4 9.50015 107.2 9.30015 107.5 9.30015H107.6C109.5 9.30015 111.1 10.9001 111.1 12.8001V16.3001C111.1 18.3001 109.5 19.9001 107.6 19.9001ZM109.1 12.8001C109.1 12.0001 108.4 11.3001 107.6 11.3001H107.4C106.6 11.3001 105.9 12.0001 105.9 12.8001V16.3001C105.9 17.1001 106.6 17.8001 107.4 17.8001H107.6C108.4 17.8001 109.1 17.1001 109.1 16.3001V12.8001Z" fill="#7E7E7E"/>
<path d="M120.5 19.9001C119.8 19.9001 119.2 19.5001 118.9 19.1001C118.3 19.6001 117.6 19.9001 116.8 19.9001H116.6C114.8 19.9001 113.1 18.9001 113.1 16.7001V16.6001C113.1 13.6001 116.5 13.5001 118 13.2001C118.3 13.1001 118.3 12.9001 118.3 12.8001C118.3 11.9001 117.7 11.4001 116.9 11.4001H116.8C116.2 11.4001 115.7 11.6001 115.4 12.2001C115.2 12.6001 114.8 12.8001 114.5 12.8001C114 12.8001 113.4 12.4001 113.4 11.8001C113.4 11.7001 113.4 11.5001 113.5 11.4001C114.2 9.80015 115.6 9.40015 116.7 9.40015H116.8C118.5 9.40015 120.2 10.6001 120.2 12.6001V17.3001C120.2 17.6001 120.2 17.8001 120.5 17.9001C121.1 18.0001 121.3 18.5001 121.3 18.9001C121.5 19.3001 121.1 19.9001 120.5 19.9001ZM118.3 15.0001C116.8 15.4001 115.1 15.3001 115.1 16.6001C115.1 17.3001 115.7 17.8001 116.6 17.8001H116.8C117.6 17.8001 118.3 17.1001 118.3 16.3001V15.0001Z" fill="#7E7E7E"/>
<path d="M129.4 19.9001C129 19.9001 128.6 19.8001 128.4 19.3001C127.8 19.9001 127.4 19.9001 126.9 19.9001H126.7C124.6 19.9001 123.2 18.3001 123.2 16.4001V10.4001C123.2 9.70015 123.7 9.40015 124.2 9.40015C124.7 9.40015 125.2 9.70015 125.2 10.4001V16.4001C125.2 17.2001 125.8 17.9001 126.7 17.9001H126.9C127.7 17.9001 128.4 17.2001 128.4 16.4001V10.4001C128.4 9.70015 128.9 9.40015 129.4 9.40015C129.9 9.40015 130.4 9.70015 130.4 10.4001V18.9001C130.4 19.5001 129.9 19.9001 129.4 19.9001Z" fill="#7E7E7E"/>
<path d="M136.7 24.3001H136.5C135.1 24.3001 133.4 23.5001 132.9 21.9001C132.9 21.8001 132.8 21.7001 132.8 21.6001C132.8 21.0001 133.3 20.6001 133.9 20.6001C135.2 20.6001 134.4 22.3001 136.5 22.3001H136.7C137.5 22.3001 138.2 21.6001 138.2 20.8001V19.3001C137.7 19.9001 137 19.9001 136.7 19.9001H136.5C134.6 19.9001 133 18.3001 133 16.4001V12.9001C133 11.0001 134.6 9.40015 136.5 9.40015H136.7C137.1 9.40015 137.7 9.50015 138.2 10.0001C138.5 9.50015 138.9 9.40015 139.2 9.40015C139.7 9.40015 140.2 9.70015 140.2 10.4001V20.9001C140.1 22.8001 138.6 24.3001 136.7 24.3001ZM138.1 12.8001C138.1 12.0001 137.5 11.3001 136.6 11.3001H136.4C135.6 11.3001 134.9 12.0001 134.9 12.8001V16.3001C134.9 17.1001 135.5 17.8001 136.4 17.8001H136.6C137.4 17.8001 138.1 17.1001 138.1 16.3001V12.8001Z" fill="#7E7E7E"/>
<path d="M148.8 15.6H144.7V16.4C144.7 17.2 145.4 17.8 146.2 17.8H146.4C147.9 17.8 147.5 16.3 148.6 16.3C149.1 16.3 149.7 16.7 149.7 17.2C149.7 17.3 149.7 17.5 149.6 17.7C148.9 19.1 148 19.8 146.4 19.8H146.2C144.3 19.8 142.7 18.3 142.7 16.3V12.7C142.7 10.8 144.3 9.19995 146.2 9.19995H146.4C148.4 9.19995 149.9 10.7 149.9 12.7V14.5C149.8 15.1 149.4 15.6 148.8 15.6ZM147.8 12.8C147.8 11.9 147.1 11.3 146.4 11.3H146.2C145.4 11.3 144.7 11.9 144.7 12.7V13.7H147.8V12.8Z" fill="#7E7E7E"/>
<path d="M158.3 19.9001C157.8 19.9001 157.3 19.6001 157.3 18.9001V12.9001C157.3 12.1001 156.7 11.4001 155.8 11.4001H155.6C154.8 11.4001 154.1 12.1001 154.1 12.9001V18.9001C154.1 19.6001 153.6 19.9001 153.1 19.9001C152.6 19.9001 152.1 19.6001 152.1 18.9001V10.4001C152.1 9.70015 152.6 9.40015 153.1 9.40015C153.5 9.40015 153.9 9.50015 154.1 10.0001C154.7 9.40015 155.1 9.40015 155.6 9.40015H155.8C157.9 9.40015 159.3 11.0001 159.3 12.9001V18.9001C159.3 19.5001 158.8 19.9001 158.3 19.9001Z" fill="#7E7E7E"/>
<path d="M165.3 19.9H165.1C163.2 19.9 161.6 18.4 161.6 16.4V12.8C161.6 10.9 163.2 9.30005 165.1 9.30005H165.3C167.2 9.30005 168.8 10.8 168.8 12.8V16.4C168.8 18.3 167.2 19.9 165.3 19.9ZM166.8 12.8C166.8 12 166.1 11.4 165.3 11.4H165.1C164.3 11.4 163.6 12 163.6 12.8V16.4C163.6 17.2 164.3 17.8 165.1 17.8H165.3C166.1 17.8 166.8 17.2 166.8 16.4V12.8Z" fill="#7E7E7E"/>
<path d="M174.6 19.9H174.2C172.8 19.9 171.4 19 170.8 17.7C170.7 17.5 170.7 17.4 170.7 17.2C170.7 16.6 171.2 16.2 171.7 16.2C172.7 16.2 172.7 17.8 174.2 17.8H174.6C175.8 17.8 176.2 17.3 176.2 16.6C176.2 15.4 175.1 15.4 174.2 15.2C172.7 14.9 170.9 14.3 170.9 12.5V12.1C170.9 10 173.2 9.30005 174.5 9.30005H174.6C176.5 9.30005 177.9 10.4 177.9 11.1C177.9 11.6 177.5 12 176.9 12C176.1 12 175.9 11.3 174.6 11.3H174.5C173.6 11.3 172.9 11.7 172.9 12.2V12.4C172.9 13.9 178.2 12.7 178.2 16.6C178.3 19.1 176.2 19.9 174.6 19.9Z" fill="#7E7E7E"/>
<path d="M183.7 19.9H183.3C181.9 19.9 180.5 19 179.9 17.7C179.8 17.5 179.8 17.4 179.8 17.2C179.8 16.6 180.3 16.2 180.8 16.2C181.8 16.2 181.8 17.8 183.3 17.8H183.7C184.9 17.8 185.3 17.3 185.3 16.6C185.3 15.4 184.2 15.4 183.3 15.2C181.8 14.9 180 14.3 180 12.5V12.1C180 10 182.3 9.30005 183.6 9.30005H183.7C185.6 9.30005 187 10.4 187 11.1C187 11.6 186.6 12 186 12C185.2 12 185 11.3 183.7 11.3H183.6C182.7 11.3 182 11.7 182 12.2V12.4C182 13.9 187.3 12.7 187.3 16.6C187.4 19.1 185.3 19.9 183.7 19.9Z" fill="#7E7E7E"/>
<path d="M195.5 15.6H191.4V16.4C191.4 17.2 192.1 17.8 192.9 17.8H193.1C194.6 17.8 194.2 16.3 195.3 16.3C195.8 16.3 196.4 16.7 196.4 17.2C196.4 17.3 196.4 17.5 196.3 17.7C195.6 19.1 194.7 19.8 193.1 19.8H192.9C191 19.8 189.4 18.3 189.4 16.3V12.7C189.4 10.8 191 9.19995 192.9 9.19995H193.1C195.1 9.19995 196.6 10.7 196.6 12.7V14.5C196.6 15.1 196.1 15.6 195.5 15.6ZM194.5 12.8C194.5 11.9 193.8 11.3 193.1 11.3H192.9C192.1 11.3 191.4 11.9 191.4 12.7V13.7H194.5V12.8Z" fill="#7E7E7E"/>
<path d="M205 19.9001C204.5 19.9001 204 19.6001 204 18.9001V12.9001C204 12.1001 203.4 11.4001 202.5 11.4001H202.3C201.5 11.4001 200.8 12.1001 200.8 12.9001V18.9001C200.8 19.6001 200.3 19.9001 199.8 19.9001C199.3 19.9001 198.8 19.6001 198.8 18.9001V10.4001C198.8 9.70015 199.3 9.40015 199.8 9.40015C200.2 9.40015 200.6 9.50015 200.8 10.0001C201.4 9.40015 201.8 9.40015 202.3 9.40015H202.5C204.6 9.40015 206 11.0001 206 12.9001V18.9001C206.1 19.5001 205.6 19.9001 205 19.9001Z" fill="#7E7E7E"/>
<path d="M211.9 19.9H211.5C210.1 19.9 208.7 19 208.1 17.7C208 17.5 208 17.4 208 17.2C208 16.6 208.5 16.2 209 16.2C210 16.2 210 17.8 211.5 17.8H211.9C213.1 17.8 213.5 17.3 213.5 16.6C213.5 15.4 212.4 15.4 211.5 15.2C210 14.9 208.2 14.3 208.2 12.5V12.1C208.2 10 210.5 9.30005 211.8 9.30005H211.9C213.8 9.30005 215.2 10.4 215.2 11.1C215.2 11.6 214.8 12 214.2 12C213.4 12 213.2 11.3 211.9 11.3H211.8C210.9 11.3 210.2 11.7 210.2 12.2V12.4C210.2 13.9 215.5 12.7 215.5 16.6C215.5 19.1 213.4 19.9 211.9 19.9Z" fill="#7E7E7E"/>
<path d="M221.2 19.9H221C219.1 19.9 217.5 18.4 217.5 16.4V12.8C217.5 10.9 219.1 9.30005 221 9.30005H221.2C223.1 9.30005 224.7 10.8 224.7 12.7C224.7 13.4 224.2 13.7 223.7 13.7C223.2 13.7 222.7 13.4 222.7 12.7C222.7 11.9 222 11.3 221.2 11.3H221C220.2 11.3 219.5 11.9 219.5 12.7V16.3C219.5 17.1 220.2 17.7 221 17.7H221.2C222 17.7 222.7 17.1 222.7 16.3C222.7 15.6 223.2 15.3 223.7 15.3C224.2 15.3 224.7 15.6 224.7 16.3C224.7 18.4 223.1 19.9 221.2 19.9Z" fill="#7E7E7E"/>
<path d="M233.4 19.9001C232.9 19.9001 232.4 19.6001 232.4 18.9001V12.9001C232.4 11.9001 231.7 11.4001 230.9 11.4001H230.8C229.8 11.4001 229.2 12.1001 229.2 13.0001V18.9001C229.2 19.6001 228.7 19.9001 228.2 19.9001C227.7 19.9001 227.2 19.6001 227.2 18.9001V5.90015C227.2 5.20015 227.7 4.90015 228.2 4.90015C228.7 4.90015 229.2 5.20015 229.2 5.90015V9.90015C229.6 9.50015 230.4 9.30015 230.7 9.30015H231C233 9.30015 234.4 10.9001 234.4 12.8001V18.8001C234.4 19.5001 233.9 19.9001 233.4 19.9001Z" fill="#7E7E7E"/>
<path d="M243.7 19.9001C243 19.9001 242.4 19.5001 242.1 19.1001C241.5 19.6001 240.8 19.9001 240 19.9001H239.8C238 19.9001 236.3 18.9001 236.3 16.7001V16.6001C236.3 13.6001 239.7 13.5001 241.2 13.2001C241.5 13.1001 241.5 12.9001 241.5 12.8001C241.5 11.9001 240.9 11.4001 240.1 11.4001H240C239.4 11.4001 238.9 11.6001 238.6 12.2001C238.4 12.6001 238 12.8001 237.7 12.8001C237.2 12.8001 236.6 12.4001 236.6 11.8001C236.6 11.7001 236.6 11.5001 236.7 11.4001C237.4 9.80015 238.8 9.40015 239.9 9.40015H240C241.7 9.40015 243.4 10.6001 243.4 12.6001V17.3001C243.4 17.6001 243.4 17.8001 243.7 17.9001C244.3 18.0001 244.5 18.5001 244.5 18.9001C244.7 19.3001 244.3 19.9001 243.7 19.9001ZM241.5 15.0001C240 15.4001 238.3 15.3001 238.3 16.6001C238.3 17.3001 238.8 17.8001 239.8 17.8001H240C240.8 17.8001 241.5 17.1001 241.5 16.3001V15.0001Z" fill="#7E7E7E"/>
<path d="M250.1 6.90005C249.6 6.90005 249.3 7.30005 249.3 7.80005V9.40005H250C250.7 9.40005 251 9.90005 251 10.4C251 10.9 250.7 11.4 250 11.4H249.3V18.8C249.3 19.5 248.8 19.8 248.3 19.8C247.8 19.8 247.3 19.5 247.3 18.8V11.4H247.1C246.4 11.4 246.1 10.9 246.1 10.4C246.1 9.90005 246.4 9.40005 247.1 9.40005H247.3V7.70005C247.3 6.10005 248.3 4.80005 250.2 4.80005C250.9 4.80005 251.2 5.30005 251.2 5.80005C251.1 6.30005 250.8 6.90005 250.1 6.90005Z" fill="#7E7E7E"/>
<path d="M256.5 19.8C254.9 19.8 253.6 18.5 253.6 16.9V11.4H253.3C252.6 11.4 252.3 10.9 252.3 10.4C252.3 9.90005 252.6 9.40005 253.3 9.40005H253.6V5.80005C253.6 5.10005 254.1 4.80005 254.6 4.80005C255.1 4.80005 255.6 5.10005 255.6 5.80005V9.30005H256.3C257 9.30005 257.3 9.80005 257.3 10.3C257.3 10.8 257 11.3 256.3 11.3H255.6V16.8C255.6 17.1 255.9 17.7 256.4 17.7C257.1 17.7 257.4 18.2 257.4 18.7C257.5 19.3 257.2 19.8 256.5 19.8Z" fill="#7E7E7E"/>
<path d="M265.6 15.6H261.5V16.4C261.5 17.2 262.2 17.8 263 17.8H263.2C264.7 17.8 264.3 16.3 265.4 16.3C265.9 16.3 266.5 16.7 266.5 17.2C266.5 17.3 266.5 17.5 266.4 17.7C265.7 19.1 264.8 19.8 263.2 19.8H263C261.1 19.8 259.5 18.3 259.5 16.3V12.7C259.5 10.8 261.1 9.19995 263 9.19995H263.2C265.2 9.19995 266.7 10.7 266.7 12.7V14.5C266.6 15.1 266.1 15.6 265.6 15.6ZM264.6 12.8C264.6 11.9 263.9 11.3 263.2 11.3H263C262.2 11.3 261.5 11.9 261.5 12.7V13.7H264.6V12.8Z" fill="#7E7E7E"/>
<path d="M275.1 19.9001C274.6 19.9001 274.1 19.6001 274.1 18.9001V12.9001C274.1 12.1001 273.5 11.4001 272.6 11.4001H272.4C271.6 11.4001 270.9 12.1001 270.9 12.9001V18.9001C270.9 19.6001 270.4 19.9001 269.9 19.9001C269.4 19.9001 268.9 19.6001 268.9 18.9001V10.4001C268.9 9.70015 269.4 9.40015 269.9 9.40015C270.3 9.40015 270.7 9.50015 270.9 10.0001C271.5 9.40015 271.9 9.40015 272.4 9.40015H272.6C274.7 9.40015 276.1 11.0001 276.1 12.9001V18.9001C276.1 19.5001 275.6 19.9001 275.1 19.9001Z" fill="#7E7E7E"/>
<path d="M288.3 19.9H287.9C286.6 19.9 285.2 19.1 284.6 17.8C284.6 17.7 284.5 17.6 284.5 17.6C284.5 17.3 284.8 17.1 285.1 17.1C285.3 17.1 285.5 17.2 285.6 17.4C286 18.3 287.1 18.9 288 18.9H288.4C289.8 18.9 290.8 18 290.8 16.9C290.8 13.4 285.1 15.9 285.1 11.9V11.8C285.1 10.4 286.5 9.30005 288.3 9.30005C290.1 9.30005 291.3 10.2 291.3 10.7C291.3 11 291.1 11.2 290.8 11.2C290.7 11.2 290.6 11.2 290.4 11C289.9 10.5 289.2 10.3 288.3 10.3H288.2C287.3 10.3 286.1 10.7 286.1 11.7V11.8C286.1 14.5 291.8 12.4 291.8 16.8C291.7 18.9 289.8 19.9 288.3 19.9Z" fill="white"/>
<path d="M297.8 19.9001H297.6C295.8 19.9001 294.3 18.4001 294.3 16.6001V12.7001C294.3 10.8001 295.8 9.40015 297.6 9.40015H297.8C299.6 9.40015 301.1 10.9001 301.1 12.7001C301.1 13.1001 300.8 13.2001 300.6 13.2001C300.4 13.2001 300.1 13.0001 300.1 12.7001C300.1 11.4001 299.1 10.4001 297.8 10.4001H297.6C296.4 10.4001 295.3 11.4001 295.3 12.7001V16.6001C295.3 17.8001 296.3 18.9001 297.6 18.9001H297.8C299 18.9001 300.1 17.9001 300.1 16.6001C300.1 16.2001 300.4 16.0001 300.6 16.0001C300.9 16.0001 301.1 16.2001 301.1 16.6001C301.1 18.4001 299.7 19.9001 297.8 19.9001Z" fill="white"/>
<path d="M310.8 19.9001C310.5 19.9001 310.3 19.7001 310.3 19.4001V12.7001C310.3 11.4001 309.3 10.4001 308.1 10.4001H307.9C306.6 10.4001 305.6 11.5001 305.6 12.7001V19.4001C305.6 19.8001 305.3 19.9001 305.1 19.9001C304.8 19.9001 304.6 19.7001 304.6 19.4001V5.40015C304.6 5.00015 304.9 4.90015 305.1 4.90015C305.4 4.90015 305.6 5.10015 305.6 5.40015V10.4001C306 9.80015 307 9.40015 307.9 9.40015H308.1C309.9 9.40015 311.4 10.9001 311.4 12.7001V19.4001C311.3 19.7001 311 19.9001 310.8 19.9001Z" fill="white"/>
<path d="M325.7 10L323.1 19.4C323 19.8 322.7 19.9 322.4 19.9C322.1 19.9 321.9 19.8 321.8 19.4L319.7 11.6L317.6 19.4C317.5 19.8 317.2 19.9 317 19.9C316.7 19.9 316.4 19.8 316.3 19.4L313.7 10C313.7 9.90005 313.7 9.90005 313.7 9.80005C313.7 9.50005 314 9.30005 314.2 9.30005C314.4 9.30005 314.6 9.40005 314.7 9.70005L316.9 18L319.1 9.70005C319.2 9.40005 319.4 9.30005 319.7 9.30005C320 9.30005 320.2 9.40005 320.3 9.70005L322.5 18L324.7 9.70005C324.8 9.40005 325 9.30005 325.2 9.30005C325.5 9.30005 325.7 9.50005 325.7 9.80005C325.7 9.90005 325.7 9.90005 325.7 10Z" fill="white"/>
<path d="M334.5 15.1H329.3V16.5C329.3 17.7 330.3 18.8 331.6 18.8H331.8C332.8 18.8 333.6 18.2 333.9 17.3C334 17 334.2 16.9 334.4 16.9C334.7 16.9 335 17.1 335 17.4C335 17.5 335 17.5 335 17.6C334.6 18.9 333.3 19.8 331.9 19.8H331.7C329.9 19.8 328.4 18.3 328.4 16.5V12.6C328.4 10.8 329.9 9.30005 331.7 9.30005H331.9C333.7 9.30005 335.2 10.7 335.2 12.6V14.5C335 14.8 334.7 15.1 334.5 15.1ZM334 12.6C334 11.3 332.9 10.3 331.8 10.3H331.6C330.4 10.3 329.3 11.3 329.3 12.6V14H334V12.6Z" fill="white"/>
<path d="M338.9 6.60015C338.6 6.60015 338.4 6.40015 338.4 6.10015V5.40015C338.4 5.00015 338.7 4.90015 338.9 4.90015C339.2 4.90015 339.4 5.10015 339.4 5.40015V6.10015C339.4 6.40015 339.1 6.60015 338.9 6.60015ZM338.9 19.9001C338.6 19.9001 338.4 19.7001 338.4 19.4001V9.80015C338.4 9.40015 338.7 9.30015 338.9 9.30015C339.2 9.30015 339.4 9.50015 339.4 9.80015V19.3001C339.4 19.7001 339.1 19.9001 338.9 19.9001Z" fill="white"/>
<path d="M348 19.7001H343.1C342.8 19.7001 342.3 19.6001 342.3 19.0001C342.3 18.7001 342.4 18.6001 342.6 18.2001L347.1 10.4001H343C342.6 10.4001 342.5 10.1001 342.5 9.90015C342.5 9.60015 342.7 9.40015 343 9.40015H347.7C348 9.40015 348.4 9.50015 348.4 10.1001C348.4 10.4001 348.3 10.5001 348.2 10.8001L343.6 18.7001H348C348.4 18.7001 348.5 19.0001 348.5 19.2001C348.6 19.4001 348.4 19.7001 348 19.7001Z" fill="white"/>
<path d="M65.2 32.3C65.1 32.3 64.9001 32.2 64.8001 32.1C64.5001 31.6 64.0001 31.5 63.4001 31.5C62.5001 31.5 61.8 31.9 61.8 32.9V40.4C61.8 40.8 61.5 41 61.3 41C61 41 60.8 40.8 60.8 40.4V31C60.8 30.6 61.1001 30.5 61.4001 30.5C61.7001 30.5 61.9001 30.7 61.9001 31C62.2001 30.7 62.9 30.5 63.5 30.5C64.2 30.5 65.2 30.7 65.7 31.5C65.8 31.6 65.8001 31.7 65.8001 31.8C65.7001 32.1 65.4 32.3 65.2 32.3Z" fill="white"/>
<path d="M74.0001 36.3H68.8001V37.7C68.8001 38.9 69.8001 40 71.1001 40H71.3001C72.3001 40 73.1001 39.4 73.4001 38.5C73.5001 38.2 73.7001 38.1 73.9001 38.1C74.2001 38.1 74.5001 38.3 74.5001 38.6C74.5001 38.7 74.5001 38.7 74.5001 38.8C74.1001 40.1 72.8001 41 71.4001 41H71.0001C69.2001 41 67.7001 39.5 67.7001 37.7V33.8C67.7001 32 69.2001 30.5 71.0001 30.5H71.2001C73.0001 30.5 74.5001 31.9 74.5001 33.8V35.7C74.5001 36 74.2001 36.3 74.0001 36.3ZM73.5001 33.8C73.5001 32.5 72.4001 31.5 71.3001 31.5H71.0001C69.8001 31.5 68.7001 32.5 68.7001 33.8V35.2H73.4001L73.5001 33.8Z" fill="white"/>
<path d="M80.9001 45.5H80.7001C79.3001 45.5 77.7001 44.7 77.2001 43.2C77.2001 43.1 77.2001 43.1 77.2001 43C77.2001 42.7 77.5001 42.5 77.8001 42.5C78.0001 42.5 78.2001 42.6 78.3001 42.9C78.6001 43.8 79.6001 44.4 80.8001 44.4H81.0001C82.2001 44.4 83.2001 43.4 83.2001 42.1V40C82.8001 40.6 81.8001 41 81.0001 41H80.8001C79.0001 41 77.5001 39.5 77.5001 37.7V33.8C77.5001 31.9 79.0001 30.5 80.8001 30.5H81.0001C81.8001 30.5 82.8001 30.9 83.2001 31.5V31C83.2001 30.6 83.5001 30.5 83.7001 30.5C84.0001 30.5 84.2001 30.7 84.2001 31V42.2C84.2001 44 82.8001 45.5 80.9001 45.5ZM83.1001 33.8C83.1001 32.5 82.1001 31.5 80.9001 31.5H80.7001C79.5001 31.5 78.5001 32.5 78.5001 33.8V37.7C78.5001 38.9 79.5001 40 80.7001 40H80.9001C82.1001 40 83.1001 38.9 83.1001 37.7V33.8Z" fill="white"/>
<path d="M88.5 27.8001C88.2 27.8001 88 27.6001 88 27.3001V26.6001C88 26.2001 88.3 26.1001 88.5 26.1001C88.7 26.1001 89 26.3001 89 26.6001V27.3001C89.1 27.6001 88.8 27.8001 88.5 27.8001ZM88.5 41.0001C88.2 41.0001 88 40.8001 88 40.5001V31.0001C88 30.6001 88.3 30.5001 88.5 30.5001C88.7 30.5001 89 30.7001 89 31.0001V40.5001C89.1 40.8001 88.8 41.0001 88.5 41.0001Z" fill="white"/>
<path d="M96.1 41H95.9C94.1 41 92.6 39.5 92.6 37.7V33.8C92.6 31.9 94.1 30.5 95.9 30.5H96.1C97.9 30.5 99.4 32 99.4 33.8V37.7C99.4 39.5 98 41 96.1 41ZM98.4 33.8C98.4 32.5 97.4 31.5 96.1 31.5H95.9C94.7 31.5 93.6 32.5 93.6 33.8V37.7C93.6 38.9 94.6 40 95.9 40H96.1C97.3 40 98.4 39 98.4 37.7V33.8Z" fill="white"/>
<path d="M109 41C108.7 41 108.5 40.8 108.5 40.5V33.8C108.5 32.5 107.5 31.5 106.3 31.5H106.1C104.8 31.5 103.8 32.6 103.8 33.8V40.5C103.8 40.9 103.5 41 103.3 41C103.1 41 102.8 40.8 102.8 40.5V31C102.8 30.6 103.1 30.5 103.3 30.5C103.5 30.5 103.8 30.7 103.8 31V31.5C104.2 30.9 105.2 30.5 106.1 30.5H106.3C108.1 30.5 109.6 32 109.6 33.8V40.5C109.5 40.8 109.3 41 109 41Z" fill="white"/>
<path d="M119.9 41H119.8C119 40.8 118.5 40.4 118.3 39.9C117.7 40.6 116.8 41 115.8 41H115.6C113.8 41 112.3 39.9 112.3 37.9V37.8C112.3 34.9 115.6 35.1 117.4 34.5C118 34.3 118 34.2 118 33.7C118 32.5 117 31.5 115.9 31.5H115.8C115 31.5 114.1 31.8 113.7 32.8C113.6 33 113.4 33.1 113.2 33.1C112.9 33.1 112.6 32.9 112.6 32.6C112.6 32.5 112.6 32.5 112.7 32.4C113.3 30.9 114.6 30.5 115.8 30.5H115.9C117.6 30.5 119.1 31.9 119.1 33.7V38C119.1 39.6 119.3 39.9 120 40C120.3 40 120.4 40.2 120.4 40.5C120.4 40.8 120.2 41 119.9 41ZM118 35.4C116.8 36 113.3 35.7 113.3 37.8V37.9C113.3 39.2 114.3 39.9 115.6 39.9H115.8C117 39.9 118 38.9 118 37.6V35.4Z" fill="white"/>
<path d="M125.9 41C124.2 41 123.3 39.8 123.3 38.3V26.5C123.3 26.1 123.6 26 123.8 26C124 26 124.3 26.2 124.3 26.5V38.3C124.3 39.2 124.9 39.9 125.9 39.9C126.3 39.9 126.5 40.2 126.5 40.4C126.4 40.8 126.2 41 125.9 41Z" fill="white"/>
<path d="M135.7 31.2L132.7 40.6C132.6 40.9 132.3 41.1 132 41.1C131.8 41.1 131.4 41 131.3 40.6L128.3 31.2C128.3 31.1 128.3 31.1 128.3 31C128.3 30.7 128.6 30.5 128.9 30.5C129.1 30.5 129.3 30.6 129.4 30.9L132.1 39.2L134.8 30.9C134.9 30.6 135.1 30.5 135.3 30.5C135.6 30.5 135.8 30.7 135.8 31C135.7 31 135.7 31.1 135.7 31.2Z" fill="white"/>
<path d="M144.4 36.3H139.2V37.7C139.2 38.9 140.2 40 141.5 40H141.7C142.7 40 143.5 39.4 143.8 38.5C143.9 38.2 144.1 38.1 144.3 38.1C144.6 38.1 144.9 38.3 144.9 38.6C144.9 38.7 144.9 38.7 144.9 38.8C144.5 40.1 143.2 41 141.8 41H141.6C139.8 41 138.3 39.5 138.3 37.7V33.8C138.3 32 139.8 30.5 141.6 30.5H141.8C143.6 30.5 145.1 31.9 145.1 33.8V35.7C144.9 36 144.7 36.3 144.4 36.3ZM143.9 33.8C143.9 32.5 142.8 31.5 141.7 31.5H141.5C140.3 31.5 139.2 32.5 139.2 33.8V35.2H143.9V33.8Z" fill="white"/>
<path d="M152 32.3C151.9 32.3 151.7 32.2 151.6 32.1C151.3 31.6 150.8 31.5 150.2 31.5C149.3 31.5 148.6 31.9 148.6 32.9V40.4C148.6 40.8 148.3 41 148.1 41C147.8 41 147.6 40.8 147.6 40.4V31C147.6 30.6 147.9 30.5 148.2 30.5C148.5 30.5 148.7 30.7 148.7 31C149 30.7 149.7 30.5 150.3 30.5C151 30.5 152 30.7 152.5 31.5C152.6 31.6 152.6 31.7 152.6 31.8C152.5 32.1 152.3 32.3 152 32.3Z" fill="white"/>
<path d="M158.7 41H158.5C157.6 41 156.6 40.5 156.2 40V40.5C156.2 40.9 155.9 41 155.7 41C155.4 41 155.2 40.8 155.2 40.5V26.5C155.2 26.1 155.5 26 155.7 26C155.9 26 156.2 26.2 156.2 26.5V31.5C156.6 30.9 157.6 30.5 158.5 30.5H158.7C160.5 30.5 162 32 162 33.8V37.7C162 39.5 160.5 41 158.7 41ZM160.9 33.8C160.9 32.5 159.9 31.5 158.7 31.5H158.5C157.2 31.5 156.2 32.6 156.2 33.8V37.6C156.2 38.8 157.2 39.9 158.5 39.9H158.7C159.9 39.9 160.9 38.9 160.9 37.6V33.8Z" fill="white"/>
<path d="M172.3 41H172.2C171.4 40.8 170.9 40.4 170.7 39.9C170.1 40.6 169.2 41 168.2 41H168C166.2 41 164.7 39.9 164.7 37.9V37.8C164.7 34.9 168 35.1 169.8 34.5C170.4 34.3 170.4 34.2 170.4 33.7C170.4 32.5 169.4 31.5 168.3 31.5H168.2C167.4 31.5 166.5 31.8 166.1 32.8C166 33 165.8 33.1 165.6 33.1C165.3 33.1 165 32.9 165 32.6C165 32.5 165 32.5 165.1 32.4C165.7 30.9 167 30.5 168.2 30.5H168.3C170 30.5 171.5 31.9 171.5 33.7V38C171.5 39.6 171.7 39.9 172.4 40C172.7 40 172.8 40.2 172.8 40.5C172.8 40.8 172.6 41 172.3 41ZM170.4 35.4C169.2 36 165.7 35.7 165.7 37.8V37.9C165.7 39.2 166.7 39.9 168 39.9H168.2C169.4 39.9 170.4 38.9 170.4 37.6V35.4Z" fill="white"/>
<path d="M181.7 41C181.4 41 181.2 40.8 181.2 40.5V33.8C181.2 32.5 180.2 31.5 179 31.5H178.8C177.5 31.5 176.5 32.6 176.5 33.8V40.5C176.5 40.9 176.2 41 176 41C175.8 41 175.5 40.8 175.5 40.5V31C175.5 30.6 175.8 30.5 176 30.5C176.2 30.5 176.5 30.7 176.5 31V31.5C176.9 30.9 177.9 30.5 178.8 30.5H179C180.8 30.5 182.3 32 182.3 33.8V40.5C182.2 40.8 181.9 41 181.7 41Z" fill="white"/>
<path d="M191.6 41C191.3 41 191.1 40.8 191.1 40.5V40C190.7 40.6 189.7 41 188.8 41H188.6C186.8 41 185.3 39.5 185.3 37.7V33.8C185.3 31.9 186.8 30.5 188.6 30.5H188.8C189.7 30.5 190.7 30.9 191.1 31.5V26.5C191.1 26.1 191.4 26 191.6 26C191.9 26 192.1 26.2 192.1 26.5V40.5C192.1 40.8 191.8 41 191.6 41ZM191 33.8C191 32.5 190 31.5 188.7 31.5H188.5C187.3 31.5 186.3 32.5 186.3 33.8V37.7C186.3 38.9 187.3 40 188.5 40H188.7C189.9 40 191 38.9 191 37.7V33.8Z" fill="white"/>
<path d="M207.2 40.9H202.3C201.8 40.9 201.2 40.4999 201.2 39.7999C201.2 39.4999 201.2 39.3 201.5 39L205.4 32.7H202.3C201.6 32.7 201.3 32.2 201.3 31.7C201.3 31.2 201.6 30.7 202.3 30.7H207C207.5 30.7 208.1 31.2 208.1 31.7C208.1 32.1 208.1 32.2999 207.8 32.7999L204 39H207.2C207.9 39 208.2 39.5 208.2 40C208.2 40.4 207.8 40.9 207.2 40.9Z" fill="#7E7E7E"/>
<path d="M216.2 41C215.8 41 215.4 40.9 215.2 40.4C214.6 41 214.2 41 213.7 41H213.5C211.4 41 210 39.4 210 37.5V31.5C210 30.8 210.5 30.5 211 30.5C211.5 30.5 212 30.8 212 31.5V37.5C212 38.3 212.6 39 213.5 39H213.7C214.5 39 215.2 38.3 215.2 37.5V31.5C215.2 30.8 215.7 30.5 216.2 30.5C216.7 30.5 217.2 30.8 217.2 31.5V40C217.2 40.7 216.7 41 216.2 41ZM211.7 28.5C211.2 28.5 210.7 28.2 210.7 27.5V27C210.7 26.3 211.2 26 211.7 26C212.2 26 212.7 26.3 212.7 27V27.5C212.8 28.1 212.3 28.5 211.7 28.5ZM215.5 28.5C215 28.5 214.5 28.2 214.5 27.5V27C214.5 26.3 215 26 215.5 26C216 26 216.5 26.3 216.5 27V27.5C216.5 28.1 215.9 28.5 215.5 28.5Z" fill="#7E7E7E"/>
<path d="M224.3 33.2001C223.4 33.2001 223.9 32.4001 222.8 32.4001C222.2 32.4001 221.7 32.6001 221.7 33.4001V39.9001C221.7 40.6001 221.2 41.0001 220.7 41.0001C220.2 41.0001 219.7 40.6001 219.7 39.9001V31.4001C219.7 30.7001 220.2 30.4001 220.7 30.4001C221.2 30.4001 221.5 30.5001 221.7 30.8001C221.9 30.5001 222.4 30.4001 222.7 30.4001C224.4 30.4001 225.1 31.3001 225.3 32.1001C225.3 32.2001 225.3 32.3001 225.3 32.4001C225.4 32.9001 224.8 33.2001 224.3 33.2001Z" fill="#7E7E7E"/>
<path d="M228.3 41C227.8 41 227.3 40.7 227.3 40V31.5C227.3 30.8 227.8 30.5 228.3 30.5C228.8 30.5 229.3 30.8 229.3 31.5V40C229.3 40.7 228.8 41 228.3 41ZM228.3 28.5C227.8 28.5 227.3 28.2 227.3 27.5V27C227.3 26.3 227.8 26 228.3 26C228.8 26 229.3 26.3 229.3 27V27.5C229.3 28.1 228.8 28.5 228.3 28.5Z" fill="#7E7E7E"/>
<path d="M235.7 41.0001H235.5C233.6 41.0001 232 39.5001 232 37.5001V33.9001C232 32.0001 233.6 30.4001 235.5 30.4001H235.7C237.6 30.4001 239.2 31.9001 239.2 33.8001C239.2 34.5001 238.7 34.8001 238.2 34.8001C237.7 34.8001 237.2 34.5001 237.2 33.8001C237.2 33.0001 236.5 32.4001 235.7 32.4001H235.5C234.7 32.4001 234 33.0001 234 33.8001V37.4001C234 38.2001 234.7 38.8001 235.5 38.8001H235.7C236.5 38.8001 237.2 38.2001 237.2 37.4001C237.2 36.7001 237.7 36.4001 238.2 36.4001C238.7 36.4001 239.2 36.7001 239.2 37.4001C239.2 39.5001 237.6 41.0001 235.7 41.0001Z" fill="#7E7E7E"/>
<path d="M247.8 41C247.3 41 246.8 40.7 246.8 40V34C246.8 33 246.1 32.5 245.3 32.5H245.2C244.2 32.5 243.6 33.2 243.6 34.1V40C243.6 40.7 243.1 41 242.6 41C242.1 41 241.6 40.7 241.6 40V27C241.6 26.3 242.1 26 242.6 26C243.1 26 243.6 26.3 243.6 27V31C244 30.6 244.8 30.4 245.1 30.4H245.4C247.4 30.4 248.8 32 248.8 33.9V39.9C248.8 40.7 248.3 41 247.8 41Z" fill="#7E7E7E"/>
<path d="M43.5 29.5001L23.8 3.60009C19.7 -1.79991 14.4 -0.999908 12 5.40009L0.700022 36.0001C-1.69998 42.4001 1.90002 46.8001 8.60002 45.8001L38.8 41.2001C45.5 40.2001 47.6 34.9001 43.5 29.5001ZM32.9 40.8001L8.80002 40.5001C3.50002 40.4001 1.30002 36.5001 3.90002 31.8001L16.5 9.50009C19.1 4.80009 23.4 4.90009 25.9 9.60009L38 32.3001C40.6 37.0001 38.3 40.9001 32.9 40.8001Z" fill="#7E7E7E"/>
</g>
<defs>
<clipPath id="clip0_92_163">
<rect width="348.6" height="46" fill="white"/>
</clipPath>
</defs>
</svg>
